<svg width="43" height="33" viewBox="0 0 43 33" fill="none" xmlns="http://www.w3.org/2000/svg">
<path d="M24.1872 8.25C30.812 8.25 34.5692 12.5785 35.1148 17.8035H35.2814C39.5438 17.8035 43 21.2053 43 25.4018C43 29.5983 39.5438 33 35.2814 33H13.0931C8.83065 33 5.37448 29.5983 5.37448 25.4018C5.37448 21.2053 8.83065 17.8035 13.0931 17.8035H13.2597C13.8107 12.5427 17.5625 8.25 24.1872 8.25ZM24.1872 11C19.7528 11 15.8908 14.4925 15.8908 19.3187C15.8908 20.0832 15.2082 20.6827 14.4261 20.6827H12.948C10.2497 20.6827 8.06202 22.825 8.06202 25.4677C8.06202 28.105 10.2497 30.25 12.948 30.25H35.4265C38.1248 30.25 40.3125 28.1078 40.3125 25.465C40.3125 22.825 38.1248 20.6827 35.4265 20.6827H33.9484C33.169 20.6827 32.4837 20.0832 32.4837 19.3187C32.4837 14.432 28.6217 11 24.1872 11ZM17.1781 9.58528e-08C21.0912 9.58528e-08 24.5044 2.277 26.1895 5.62375C25.0445 5.47847 23.8878 5.45819 22.7387 5.56325C22.0748 4.68895 21.2248 3.98111 20.2533 3.49361C19.2818 3.00611 18.2145 2.75179 17.1325 2.75C15.4425 2.7582 13.8097 3.37643 12.5216 4.49577C11.2334 5.61511 10.3727 7.16372 10.0911 8.86875L9.99167 9.44625C9.88392 10.0854 9.55889 10.6649 9.074 11.0826C8.58912 11.5002 7.97557 11.7291 7.34176 11.7288H6.64837C4.46072 11.7288 2.68694 13.5657 2.68694 15.8317C2.68694 17.3992 3.53352 18.7605 4.77785 19.4507C4.20271 20.1987 3.72971 21.0348 3.38033 21.9313C2.10001 21.1331 1.10185 19.9379 0.530935 18.5194C-0.039978 17.1009 -0.15388 15.5331 0.205785 14.0438C0.56545 12.5545 1.37994 11.2214 2.53084 10.2383C3.68175 9.25522 5.10909 8.67333 6.60537 8.57725L7.19932 8.5635C7.61374 6.16365 8.84112 3.9899 10.666 2.42387C12.4908 0.85785 14.7965 -0.000331144 17.1781 9.58528e-08Z" fill="white"/>
</svg>
