<svg width="36" height="24" viewBox="0 0 36 24" fill="none" xmlns="http://www.w3.org/2000/svg">
<path d="M17.999 -0.00134277C24.336 -0.00134277 27.931 4.19266 28.454 9.25866H28.614C32.692 9.25866 35.998 12.5557 35.998 16.6237C35.998 20.6917 32.692 23.9887 28.614 23.9887H7.384C3.306 23.9887 0 20.6917 0 16.6237C0 12.5557 3.306 9.25866 7.384 9.25866H7.544C8.07 4.15966 11.662 -0.00134277 17.999 -0.00134277ZM17.999 2.49366C13.738 2.49366 10.024 5.94166 10.024 10.7037C10.024 11.4587 9.368 12.0507 8.616 12.0507H7.196C4.602 12.0507 2.499 14.1647 2.499 16.7717C2.499 19.3797 4.602 21.4937 7.196 21.4937H28.802C31.396 21.4937 33.499 19.3797 33.499 16.7717C33.499 14.1647 31.396 12.0517 28.802 12.0517H27.382C26.63 12.0517 25.974 11.4587 25.974 10.7037C25.974 5.88066 22.26 2.49366 17.999 2.49366Z" fill="white"/>
</svg>
