<svg width="40" height="32" viewBox="0 0 40 32" fill="none" xmlns="http://www.w3.org/2000/svg">
<path d="M21.9897 7.9987C28.3267 7.9987 31.9217 12.1927 32.4447 17.2587H32.6047C36.6827 17.2587 39.9887 20.5557 39.9887 24.6237C39.9887 28.6917 36.6827 31.9887 32.6047 31.9887H11.3747C7.29671 31.9887 3.99071 28.6917 3.99071 24.6237C3.99071 20.5557 7.29671 17.2587 11.3747 17.2587H11.5347C12.0607 12.1597 15.6527 7.9987 21.9897 7.9987ZM21.9897 10.4937C17.7287 10.4937 14.0147 13.9417 14.0147 18.7037C14.0147 19.4587 13.3587 20.0507 12.6067 20.0507H11.1867C8.59271 20.0507 6.48971 22.1647 6.48971 24.7717C6.48971 27.3797 8.59271 29.4937 11.1867 29.4937H32.7927C35.3867 29.4937 37.4897 27.3797 37.4897 24.7717C37.4897 22.1647 35.3867 20.0517 32.7927 20.0517H31.3727C30.6207 20.0517 29.9647 19.4587 29.9647 18.7037C29.9647 13.8807 26.2507 10.4937 21.9897 10.4937ZM4.69971 16.2917C4.81729 16.5762 4.82522 16.8942 4.72197 17.1841C4.61872 17.4741 4.41162 17.7155 4.14071 17.8617L4.02571 17.9167L1.71471 18.8787C1.4206 18.9983 1.09189 19.001 0.795896 18.8861C0.499905 18.7712 0.259045 18.5475 0.122654 18.2608C-0.013738 17.974 -0.0353376 17.646 0.0622794 17.3439C0.159896 17.0418 0.369341 16.7884 0.647711 16.6357L0.762711 16.5807L3.07471 15.6187C3.37934 15.4929 3.72145 15.493 4.02594 15.6192C4.33043 15.7454 4.5734 15.9873 4.69971 16.2917ZM17.6987 6.6517L17.6367 6.6707C16.7127 6.9727 15.8527 7.3727 15.0667 7.8607C13.9927 7.40626 12.8021 7.30495 11.6668 7.5714C10.5315 7.83784 9.51025 8.45825 8.75058 9.34302C7.9909 10.2278 7.53211 11.3311 7.44046 12.4937C7.34881 13.6562 7.62905 14.8178 8.24071 15.8107C7.48823 16.0796 6.77364 16.4446 6.11471 16.8967C5.19464 15.321 4.84969 13.4749 5.13869 11.6732C5.4277 9.87158 6.33276 8.22599 7.69951 7.01709C9.06627 5.8082 10.8101 5.11089 12.6335 5.04407C14.457 4.97726 16.2471 5.54508 17.6987 6.6507M1.56971 6.8297L1.69671 6.8757L4.01571 7.8647C4.64571 8.1307 4.94771 8.8597 4.69071 9.4927C4.45071 10.0847 3.80771 10.3827 3.21071 10.2037L3.08471 10.1587L0.764711 9.1687C0.461896 9.03925 0.221799 8.79638 0.0958259 8.4921C-0.0301472 8.18782 -0.0319832 7.84632 0.0907109 7.5407C0.330711 6.9497 0.972711 6.6507 1.56971 6.8297ZM8.93871 0.655699L8.99371 0.771699L9.95371 3.0777C10.0742 3.37329 10.077 3.70376 9.96154 4.00135C9.84612 4.29894 9.62124 4.54111 9.33299 4.6782C9.04474 4.81529 8.71497 4.83692 8.41128 4.73865C8.1076 4.64038 7.85301 4.42967 7.69971 4.1497L7.64471 4.0347L6.68471 1.7287C6.56299 1.43291 6.5593 1.10171 6.67438 0.80327C6.78947 0.504834 7.01458 0.26187 7.30339 0.124388C7.59219 -0.0130952 7.92271 -0.0346358 8.22692 0.0641993C8.53112 0.163034 8.78586 0.374725 8.93871 0.655699ZM17.9877 0.0956987C18.5897 0.345699 18.8957 1.0057 18.7177 1.6167L18.6717 1.7467L17.6797 4.0227C17.5571 4.32275 17.3239 4.5642 17.0283 4.69707C16.7326 4.82995 16.3972 4.84408 16.0915 4.73655C15.7857 4.62902 15.533 4.40806 15.3856 4.11938C15.2382 3.83071 15.2075 3.49642 15.2997 3.1857L15.3457 3.0557L16.3367 0.779699C16.465 0.470367 16.7108 0.224597 17.0202 0.0963534C17.3296 -0.0318905 17.6782 -0.0321261 17.9877 0.0956987Z" fill="white"/>
</svg>
