<svg width="36" height="28" viewBox="0 0 36 28" fill="none" xmlns="http://www.w3.org/2000/svg">
<path d="M16.7663 23.7601L18 20L19.2337 23.7601C19.298 23.9583 19.3152 24.1693 19.2837 24.3756C19.2523 24.5819 19.1731 24.7777 19.0526 24.9469C18.9322 25.116 18.774 25.2538 18.591 25.3488C18.4081 25.4438 18.2055 25.4933 18 25.4933C17.7945 25.4933 17.5919 25.4438 17.409 25.3488C17.226 25.2538 17.0678 25.116 16.9474 24.9469C16.8269 24.7777 16.7477 24.5819 16.7163 24.3756C16.6848 24.1693 16.702 23.9583 16.7663 23.7601ZM20.4673 26.2668L21.701 22.5067L22.9346 26.2668C22.999 26.465 23.0161 26.676 22.9847 26.8823C22.9532 27.0886 22.874 27.2844 22.7536 27.4536C22.6332 27.6228 22.475 27.7605 22.292 27.8555C22.109 27.9505 21.9065 28 21.701 28C21.4955 28 21.2929 27.9505 21.1099 27.8555C20.9269 27.7605 20.7687 27.6228 20.6483 27.4536C20.5279 27.2844 20.4487 27.0886 20.4172 26.8823C20.3858 26.676 20.4029 26.465 20.4673 26.2668ZM13.0654 26.2668L14.299 22.5067L15.5327 26.2668C15.5971 26.465 15.6142 26.676 15.5828 26.8823C15.5513 27.0886 15.4721 27.2844 15.3517 27.4536C15.2313 27.6228 15.0731 27.7605 14.8901 27.8555C14.7071 27.9505 14.5045 28 14.299 28C14.0935 28 13.891 27.9505 13.708 27.8555C13.525 27.7605 13.3668 27.6228 13.2464 27.4536C13.126 27.2844 13.0468 27.0886 13.0153 26.8823C12.9839 26.676 13.001 26.465 13.0654 26.2668Z" fill="white"/>
<path d="M28.454 9.26001C27.931 4.19397 24.336 0 17.999 0C11.662 0 8.06999 4.16101 7.54401 9.26001H7.384C3.306 9.26001 0 12.557 0 16.625C0 20.693 3.306 23.99 7.384 23.99H12V21.495H7.196C4.60201 21.495 2.49899 19.381 2.49899 16.773C2.49899 14.166 4.60201 12.052 7.196 12.052H8.616C9.368 12.052 10.024 11.46 10.024 10.705C10.024 5.94299 13.738 2.495 17.999 2.495C22.26 2.495 25.974 5.88196 25.974 10.705C25.974 11.46 26.63 12.053 27.382 12.053H28.802C31.396 12.053 33.499 14.166 33.499 16.773C33.499 19.381 31.396 21.495 28.802 21.495H24V23.99H28.614C32.692 23.99 35.998 20.693 35.998 16.625C35.998 12.557 32.692 9.26001 28.614 9.26001H28.454Z" fill="white"/>
</svg>
