<svg width="36" height="33" viewBox="0 0 36 33" fill="none" xmlns="http://www.w3.org/2000/svg">
<path d="M17.9907 28.0197C18.5211 28.0197 19.0298 28.2304 19.4049 28.6055C19.78 28.9806 19.9907 29.4893 19.9907 30.0197C19.9907 30.5501 19.78 31.0589 19.4049 31.4339C19.0298 31.809 18.5211 32.0197 17.9907 32.0197C17.4603 32.0197 16.9516 31.809 16.5765 31.4339C16.2014 31.0589 15.9907 30.5501 15.9907 30.0197C15.9907 29.4893 16.2014 28.9806 16.5765 28.6055C16.9516 28.2304 17.4603 28.0197 17.9907 28.0197ZM10.9907 26.0197C11.5211 26.0197 12.0298 26.2304 12.4049 26.6055C12.78 26.9806 12.9907 27.4893 12.9907 28.0197C12.9907 28.5501 12.78 29.0589 12.4049 29.4339C12.0298 29.809 11.5211 30.0197 10.9907 30.0197C10.4603 30.0197 9.95155 29.809 9.57648 29.4339C9.20141 29.0589 8.99069 28.5501 8.99069 28.0197C8.99069 27.4893 9.20141 26.9806 9.57648 26.6055C9.95155 26.2304 10.4603 26.0197 10.9907 26.0197ZM24.9907 26.0197C25.5211 26.0197 26.0298 26.2304 26.4049 26.6055C26.78 26.9806 26.9907 27.4893 26.9907 28.0197C26.9907 28.5501 26.78 29.0589 26.4049 29.4339C26.0298 29.809 25.5211 30.0197 24.9907 30.0197C24.4603 30.0197 23.9516 29.809 23.5765 29.4339C23.2014 29.0589 22.9907 28.5501 22.9907 28.0197C22.9907 27.4893 23.2014 26.9806 23.5765 26.6055C23.9516 26.2304 24.4603 26.0197 24.9907 26.0197ZM17.9897 -0.00128174C24.3267 -0.00128174 27.9217 4.19272 28.4447 9.25872H28.6047C32.6827 9.25872 35.9887 12.5557 35.9887 16.6237C35.9887 20.6917 32.6827 23.9887 28.6047 23.9887H7.37469C3.29669 23.9887 -0.00930786 20.6917 -0.00930786 16.6237C-0.00930786 12.5557 3.29669 9.25872 7.37469 9.25872H7.53469C8.06069 4.15972 11.6527 -0.00128174 17.9897 -0.00128174ZM17.9897 2.49372C13.7287 2.49372 10.0147 5.94172 10.0147 10.7037C10.0147 11.4587 9.35869 12.0507 8.60669 12.0507H7.18669C4.59269 12.0507 2.48969 14.1647 2.48969 16.7717C2.48969 19.3797 4.59269 21.4937 7.18669 21.4937H28.7927C31.3867 21.4937 33.4897 19.3797 33.4897 16.7717C33.4897 14.1647 31.3867 12.0517 28.7927 12.0517H27.3727C26.6207 12.0517 25.9647 11.4587 25.9647 10.7037C25.9647 5.88072 22.2507 2.49372 17.9897 2.49372Z" fill="white"/>
</svg>
