<svg width="36" height="29" viewBox="0 0 36 29" fill="none" xmlns="http://www.w3.org/2000/svg">
<path d="M20 16L14 21.8514L18 23.9444L16 29L22 23.15L18 21.0556L20 16Z" fill="white"/>
<path d="M28.454 9.26001C27.931 4.19397 24.336 0 17.999 0C11.662 0 8.06999 4.16101 7.54401 9.26001H7.384C3.306 9.26001 0 12.557 0 16.625C0 20.693 3.306 23.99 7.384 23.99H12V21.495H7.196C4.60201 21.495 2.49899 19.381 2.49899 16.773C2.49899 14.166 4.60201 12.052 7.196 12.052H8.616C9.368 12.052 10.024 11.46 10.024 10.705C10.024 5.94299 13.738 2.495 17.999 2.495C22.26 2.495 25.974 5.88196 25.974 10.705C25.974 11.46 26.63 12.053 27.382 12.053H28.802C31.396 12.053 33.499 14.166 33.499 16.773C33.499 19.381 31.396 21.495 28.802 21.495H24V23.99H28.614C32.692 23.99 35.998 20.693 35.998 16.625C35.998 12.557 32.692 9.26001 28.614 9.26001H28.454Z" fill="white"/>
</svg>
