<svg width="40" height="40" viewBox="0 0 40 40" fill="none" xmlns="http://www.w3.org/2000/svg">
<path d="M20 0C20.3978 0 20.7794 0.158035 21.0607 0.43934C21.342 0.720644 21.5 1.10218 21.5 1.5V4.5C21.5 4.89782 21.342 5.27936 21.0607 5.56066C20.7794 5.84196 20.3978 6 20 6C19.6022 6 19.2206 5.84196 18.9393 5.56066C18.658 5.27936 18.5 4.89782 18.5 4.5V1.5C18.5 1.10218 18.658 0.720644 18.9393 0.43934C19.2206 0.158035 19.6022 0 20 0ZM20 30C22.6522 30 25.1957 28.9464 27.0711 27.0711C28.9464 25.1957 30 22.6522 30 20C30 17.3478 28.9464 14.8043 27.0711 12.9289C25.1957 11.0536 22.6522 10 20 10C17.3478 10 14.8043 11.0536 12.9289 12.9289C11.0536 14.8043 10 17.3478 10 20C10 22.6522 11.0536 25.1957 12.9289 27.0711C14.8043 28.9464 17.3478 30 20 30ZM20 27C19.0807 27 18.1705 26.8189 17.3212 26.4672C16.4719 26.1154 15.7003 25.5998 15.0503 24.9497C14.4002 24.2997 13.8846 23.5281 13.5328 22.6788C13.1811 21.8295 13 20.9193 13 20C13 19.0807 13.1811 18.1705 13.5328 17.3212C13.8846 16.4719 14.4002 15.7003 15.0503 15.0503C15.7003 14.4002 16.4719 13.8846 17.3212 13.5328C18.1705 13.1811 19.0807 13 20 13C21.8565 13 23.637 13.7375 24.9497 15.0503C26.2625 16.363 27 18.1435 27 20C27 21.8565 26.2625 23.637 24.9497 24.9497C23.637 26.2625 21.8565 27 20 27ZM38.5 21.5C38.8978 21.5 39.2794 21.342 39.5607 21.0607C39.842 20.7794 40 20.3978 40 20C40 19.6022 39.842 19.2206 39.5607 18.9393C39.2794 18.658 38.8978 18.5 38.5 18.5H35.5C35.1022 18.5 34.7206 18.658 34.4393 18.9393C34.158 19.2206 34 19.6022 34 20C34 20.3978 34.158 20.7794 34.4393 21.0607C34.7206 21.342 35.1022 21.5 35.5 21.5H38.5ZM20 34C20.3978 34 20.7794 34.158 21.0607 34.4393C21.342 34.7206 21.5 35.1022 21.5 35.5V38.5C21.5 38.8978 21.342 39.2794 21.0607 39.5607C20.7794 39.842 20.3978 40 20 40C19.6022 40 19.2206 39.842 18.9393 39.5607C18.658 39.2794 18.5 38.8978 18.5 38.5V35.5C18.5 35.1022 18.658 34.7206 18.9393 34.4393C19.2206 34.158 19.6022 34 20 34ZM4.5 21.5C4.89782 21.5 5.27936 21.342 5.56066 21.0607C5.84196 20.7794 6 20.3978 6 20C6 19.6022 5.84196 19.2206 5.56066 18.9393C5.27936 18.658 4.89782 18.5 4.5 18.5H1.5C1.10218 18.5 0.720644 18.658 0.43934 18.9393C0.158035 19.2206 0 19.6022 0 20C0 20.3978 0.158035 20.7794 0.43934 21.0607C0.720644 21.342 1.10218 21.5 1.5 21.5H4.5ZM4.44 4.44C4.72125 4.1591 5.1025 4.00132 5.5 4.00132C5.8975 4.00132 6.27875 4.1591 6.56 4.44L9.56 7.44C9.82496 7.72435 9.96921 8.10044 9.96235 8.48905C9.95549 8.87765 9.79807 9.24842 9.52324 9.52324C9.24842 9.79807 8.87765 9.95549 8.48905 9.96235C8.10044 9.96921 7.72435 9.82496 7.44 9.56L4.44 6.56C4.1591 6.27875 4.00132 5.8975 4.00132 5.5C4.00132 5.1025 4.1591 4.72125 4.44 4.44ZM6.56 35.56C6.42268 35.7074 6.25707 35.8256 6.07308 35.9076C5.88908 35.9895 5.69045 36.0336 5.48905 36.0372C5.28764 36.0407 5.08758 36.0037 4.9008 35.9282C4.71403 35.8528 4.54436 35.7405 4.40192 35.5981C4.25949 35.4556 4.1472 35.286 4.07175 35.0992C3.99631 34.9124 3.95926 34.7124 3.96282 34.511C3.96637 34.3096 4.01045 34.1109 4.09244 33.9269C4.17442 33.7429 4.29263 33.5773 4.44 33.44L7.44 30.44C7.57732 30.2926 7.74293 30.1744 7.92692 30.0924C8.11092 30.0105 8.30955 29.9664 8.51095 29.9628C8.71236 29.9593 8.91242 29.9963 9.0992 30.0718C9.28597 30.1472 9.45564 30.2595 9.59808 30.4019C9.74051 30.5444 9.8528 30.714 9.92825 30.9008C10.0037 31.0876 10.0407 31.2876 10.0372 31.489C10.0336 31.6904 9.98955 31.8891 9.90756 32.0731C9.82558 32.2571 9.70737 32.4227 9.56 32.56L6.56 35.56ZM35.56 4.44C35.2788 4.1591 34.8975 4.00132 34.5 4.00132C34.1025 4.00132 33.7212 4.1591 33.44 4.44L30.44 7.44C30.175 7.72435 30.0308 8.10044 30.0377 8.48905C30.0445 8.87765 30.2019 9.24842 30.4768 9.52324C30.7516 9.79807 31.1224 9.95549 31.511 9.96235C31.8996 9.96921 32.2757 9.82496 32.56 9.56L35.56 6.56C35.8409 6.27875 35.9987 5.8975 35.9987 5.5C35.9987 5.1025 35.8409 4.72125 35.56 4.44ZM33.44 35.56C33.5773 35.7074 33.7429 35.8256 33.9269 35.9076C34.1109 35.9895 34.3096 36.0336 34.511 36.0372C34.7124 36.0407 34.9124 36.0037 35.0992 35.9282C35.286 35.8528 35.4556 35.7405 35.5981 35.5981C35.7405 35.4556 35.8528 35.286 35.9282 35.0992C36.0037 34.9124 36.0407 34.7124 36.0372 34.511C36.0336 34.3096 35.9895 34.1109 35.9076 33.9269C35.8256 33.7429 35.7074 33.5773 35.56 33.44L32.56 30.44C32.4227 30.2926 32.2571 30.1744 32.0731 30.0924C31.8891 30.0105 31.6904 29.9664 31.489 29.9628C31.2876 29.9593 31.0876 29.9963 30.9008 30.0718C30.714 30.1472 30.5444 30.2595 30.4019 30.4019C30.2595 30.5444 30.1472 30.714 30.0718 30.9008C29.9963 31.0876 29.9593 31.2876 29.9628 31.489C29.9664 31.6904 30.0105 31.8891 30.0924 32.0731C30.1744 32.2571 30.2926 32.4227 30.44 32.56L33.44 35.56Z" fill="white"/>
</svg>
